<svg width="119" height="49" viewBox="0 0 119 49" fill="none" xmlns="http://www.w3.org/2000/svg">
<path d="M10.45 29.3C9.1 29.3 7.84167 29.0833 6.675 28.65C5.525 28.2 4.525 27.5667 3.675 26.75C2.825 25.9333 2.15833 24.975 1.675 23.875C1.20833 22.775 0.975 21.5667 0.975 20.25C0.975 18.9333 1.20833 17.725 1.675 16.625C2.15833 15.525 2.825 14.5667 3.675 13.75C4.54167 12.9333 5.55 12.3083 6.7 11.875C7.85 11.425 9.10833 11.2 10.475 11.2C11.9917 11.2 13.3583 11.4667 14.575 12C15.8083 12.5167 16.8417 13.2833 17.675 14.3L15.075 16.7C14.475 16.0167 13.8083 15.5083 13.075 15.175C12.3417 14.825 11.5417 14.65 10.675 14.65C9.85833 14.65 9.10833 14.7833 8.425 15.05C7.74167 15.3167 7.15 15.7 6.65 16.2C6.15 16.7 5.75833 17.2917 5.475 17.975C5.20833 18.6583 5.075 19.4167 5.075 20.25C5.075 21.0833 5.20833 21.8417 5.475 22.525C5.75833 23.2083 6.15 23.8 6.65 24.3C7.15 24.8 7.74167 25.1833 8.425 25.45C9.10833 25.7167 9.85833 25.85 10.675 25.85C11.5417 25.85 12.3417 25.6833 13.075 25.35C13.8083 25 14.475 24.475 15.075 23.775L17.675 26.175C16.8417 27.1917 15.8083 27.9667 14.575 28.5C13.3583 29.0333 11.9833 29.3 10.45 29.3ZM28.0676 29V26.375L27.8176 25.8V21.1C27.8176 20.2667 27.5592 19.6167 27.0426 19.15C26.5426 18.6833 25.7676 18.45 24.7176 18.45C24.0009 18.45 23.2926 18.5667 22.5926 18.8C21.9092 19.0167 21.3259 19.3167 20.8426 19.7L19.4426 16.975C20.1759 16.4583 21.0592 16.0583 22.0926 15.775C23.1259 15.4917 24.1759 15.35 25.2426 15.35C27.2926 15.35 28.8842 15.8333 30.0176 16.8C31.1509 17.7667 31.7176 19.275 31.7176 21.325V29H28.0676ZM23.9676 29.2C22.9176 29.2 22.0176 29.025 21.2676 28.675C20.5176 28.3083 19.9426 27.8167 19.5426 27.2C19.1426 26.5833 18.9426 25.8917 18.9426 25.125C18.9426 24.325 19.1342 23.625 19.5176 23.025C19.9176 22.425 20.5426 21.9583 21.3926 21.625C22.2426 21.275 23.3509 21.1 24.7176 21.1H28.2926V23.375H25.1426C24.2259 23.375 23.5926 23.525 23.2426 23.825C22.9092 24.125 22.7426 24.5 22.7426 24.95C22.7426 25.45 22.9342 25.85 23.3176 26.15C23.7176 26.4333 24.2592 26.575 24.9426 26.575C25.5926 26.575 26.1759 26.425 26.6926 26.125C27.2092 25.8083 27.5842 25.35 27.8176 24.75L28.4176 26.55C28.1342 27.4167 27.6176 28.075 26.8676 28.525C26.1176 28.975 25.1509 29.2 23.9676 29.2ZM35.2473 29V15.55H38.9723V19.35L38.4473 18.25C38.8473 17.3 39.4889 16.5833 40.3723 16.1C41.2556 15.6 42.3306 15.35 43.5973 15.35V18.95C43.4306 18.9333 43.2806 18.925 43.1473 18.925C43.0139 18.9083 42.8723 18.9 42.7223 18.9C41.6556 18.9 40.7889 19.2083 40.1223 19.825C39.4723 20.425 39.1473 21.3667 39.1473 22.65V29H35.2473ZM51.8801 29.2C50.2967 29.2 49.0634 28.8 48.1801 28C47.2967 27.1833 46.8551 25.975 46.8551 24.375V12.575H50.7551V24.325C50.7551 24.8917 50.9051 25.3333 51.2051 25.65C51.5051 25.95 51.9134 26.1 52.4301 26.1C53.0467 26.1 53.5717 25.9333 54.0051 25.6L55.0551 28.35C54.6551 28.6333 54.1717 28.85 53.6051 29C53.0551 29.1333 52.4801 29.2 51.8801 29.2ZM44.7801 18.55V15.55H54.1051V18.55H44.7801ZM65.0549 29V26.375L64.8049 25.8V21.1C64.8049 20.2667 64.5466 19.6167 64.0299 19.15C63.5299 18.6833 62.7549 18.45 61.7049 18.45C60.9882 18.45 60.2799 18.5667 59.5799 18.8C58.8965 19.0167 58.3132 19.3167 57.8299 19.7L56.4299 16.975C57.1632 16.4583 58.0465 16.0583 59.0799 15.775C60.1132 15.4917 61.1632 15.35 62.2299 15.35C64.2799 15.35 65.8716 15.8333 67.0049 16.8C68.1382 17.7667 68.7049 19.275 68.7049 21.325V29H65.0549ZM60.9549 29.2C59.9049 29.2 59.0049 29.025 58.2549 28.675C57.5049 28.3083 56.9299 27.8167 56.5299 27.2C56.1299 26.5833 55.9299 25.8917 55.9299 25.125C55.9299 24.325 56.1215 23.625 56.5049 23.025C56.9049 22.425 57.5299 21.9583 58.3799 21.625C59.2299 21.275 60.3382 21.1 61.7049 21.1H65.2799V23.375H62.1299C61.2132 23.375 60.5799 23.525 60.2299 23.825C59.8965 24.125 59.7299 24.5 59.7299 24.95C59.7299 25.45 59.9215 25.85 60.3049 26.15C60.7049 26.4333 61.2465 26.575 61.9299 26.575C62.5799 26.575 63.1632 26.425 63.6799 26.125C64.1965 25.8083 64.5715 25.35 64.8049 24.75L65.4049 26.55C65.1215 27.4167 64.6049 28.075 63.8549 28.525C63.1049 28.975 62.1382 29.2 60.9549 29.2ZM72.2346 29V15.55H76.1346V29H72.2346ZM74.1846 13.675C73.4679 13.675 72.8846 13.4667 72.4346 13.05C71.9846 12.6333 71.7596 12.1167 71.7596 11.5C71.7596 10.8833 71.9846 10.3667 72.4346 9.95C72.8846 9.53333 73.4679 9.325 74.1846 9.325C74.9012 9.325 75.4846 9.525 75.9346 9.925C76.3846 10.3083 76.6096 10.8083 76.6096 11.425C76.6096 12.075 76.3846 12.6167 75.9346 13.05C75.5012 13.4667 74.9179 13.675 74.1846 13.675ZM79.7541 29V10.45H83.6541V29H79.7541Z" fill="black"/>
<circle cx="102.5" cy="32.7473" r="13.5" fill="#8ED74F"/>
<path d="M96.2991 39.6767C95.9196 39.8031 95.5496 39.7841 95.1892 39.6196C94.835 39.4425 94.59 39.15 94.454 38.742C94.3181 38.3341 94.3419 37.9625 94.5253 37.6273C94.7151 37.2795 94.9997 37.0424 95.3792 36.9159C95.7682 36.7863 96.1382 36.8053 96.4892 36.973C96.837 37.1311 97.0789 37.4142 97.2148 37.8221C97.3508 38.2301 97.3301 38.6111 97.153 38.9653C96.9727 39.31 96.6881 39.5471 96.2991 39.6767ZM99.146 38.6016L96.595 30.9454L98.7154 30.2389L99.4362 32.402L98.9287 31.8755C98.9762 31.2588 99.2055 30.7292 99.6167 30.2865C100.025 29.8343 100.589 29.4881 101.31 29.2479L101.993 31.2971C101.895 31.3193 101.808 31.343 101.732 31.3683C101.653 31.3841 101.571 31.4062 101.485 31.4346C100.878 31.6369 100.443 31.9768 100.181 32.4543C99.9247 32.9191 99.9183 33.5168 100.162 34.2473L101.366 37.8619L99.146 38.6016ZM108.543 35.5971C107.907 35.8089 107.297 35.8752 106.712 35.7961C106.137 35.7138 105.627 35.4671 105.185 35.0559C104.739 34.6353 104.385 34.0312 104.123 33.2438L102.681 28.9176L104.901 28.1779L106.233 32.1768C106.445 32.8124 106.735 33.2378 107.101 33.4529C107.474 33.6553 107.908 33.6744 108.401 33.51C108.743 33.3962 109.022 33.2239 109.241 32.993C109.456 32.7527 109.589 32.4555 109.639 32.1013C109.687 31.7377 109.633 31.3234 109.478 30.8585L108.217 27.0731L110.437 26.3334L112.988 33.9896L110.882 34.6914L110.18 32.5852L110.768 33.0691C110.689 33.6858 110.444 34.2154 110.033 34.6581C109.628 35.0881 109.131 35.4011 108.543 35.5971Z" fill="black"/>
</svg>
