<svg width="44" height="44" viewBox="0 0 44 44" fill="none" xmlns="http://www.w3.org/2000/svg">
<circle cx="22" cy="22" r="21.5" stroke="#8ED74F"/>
<path d="M28.3962 24.6282C27.9451 24.1592 27.4011 23.9085 26.8245 23.9085C26.2525 23.9085 25.7038 24.1546 25.2342 24.6236L23.7648 26.0862C23.6439 26.0212 23.523 25.9608 23.4067 25.9005C23.2393 25.8169 23.0812 25.738 22.9464 25.6544C21.57 24.7814 20.3191 23.6438 19.1194 22.1719C18.5382 21.4383 18.1476 20.8207 17.8639 20.1939C18.2452 19.8457 18.5986 19.4835 18.9427 19.1352C19.0729 19.0052 19.2031 18.8706 19.3333 18.7406C20.3098 17.7655 20.3098 16.5025 19.3333 15.5274L18.0639 14.2598C17.9197 14.1159 17.7709 13.9673 17.6314 13.8187C17.3524 13.5308 17.0595 13.2337 16.7572 12.9551C16.3062 12.5093 15.7668 12.2725 15.1995 12.2725C14.6322 12.2725 14.0835 12.5093 13.6185 12.9551C13.6138 12.9597 13.6138 12.9597 13.6092 12.9644L12.0282 14.557C11.433 15.1513 11.0935 15.8757 11.0191 16.7161C10.9075 18.0719 11.3074 19.3349 11.6143 20.1614C12.3676 22.1905 13.4929 24.071 15.1716 26.0862C17.2083 28.5146 19.6588 30.4323 22.4581 31.7835C23.5276 32.2896 24.9552 32.8886 26.5501 32.9907C26.6478 32.9954 26.7501 33 26.8431 33C27.9172 33 28.8193 32.6146 29.5261 31.8485C29.5308 31.8392 29.5401 31.8345 29.5447 31.8253C29.7865 31.5327 30.0655 31.2681 30.3585 30.9848C30.5584 30.7945 30.763 30.5948 30.963 30.3859C31.4233 29.9076 31.6651 29.3504 31.6651 28.7793C31.6651 28.2035 31.4187 27.651 30.949 27.1866L28.3962 24.6282ZM30.0609 29.5176C30.0562 29.5176 30.0562 29.5222 30.0609 29.5176C29.8795 29.7126 29.6935 29.889 29.4936 30.084C29.1913 30.3719 28.8844 30.6737 28.5961 31.0127C28.1265 31.5142 27.5731 31.751 26.8477 31.751C26.778 31.751 26.7036 31.751 26.6338 31.7463C25.2528 31.6581 23.9694 31.1195 23.0068 30.6598C20.3749 29.3876 18.0639 27.5813 16.1434 25.2922C14.5578 23.3838 13.4976 21.6194 12.7954 19.7249C12.363 18.5688 12.2049 17.668 12.2746 16.8183C12.3211 16.275 12.5304 15.8246 12.9163 15.4392L14.502 13.8559C14.7298 13.6423 14.9716 13.5262 15.2088 13.5262C15.5017 13.5262 15.7389 13.7026 15.8877 13.8512C15.8923 13.8559 15.897 13.8605 15.9016 13.8652C16.1853 14.1298 16.455 14.4038 16.7386 14.6963C16.8828 14.8449 17.0316 14.9935 17.1804 15.1467L18.4498 16.4143C18.9427 16.9065 18.9427 17.3615 18.4498 17.8537C18.315 17.9884 18.1848 18.123 18.0499 18.253C17.6593 18.6524 17.2873 19.0238 16.8828 19.386C16.8735 19.3953 16.8642 19.3999 16.8595 19.4092C16.4596 19.8085 16.534 20.1986 16.6177 20.4632C16.6224 20.4771 16.627 20.4911 16.6317 20.505C16.9618 21.3036 17.4268 22.0559 18.1336 22.952L18.1383 22.9566C19.4217 24.5354 20.7748 25.7658 22.2675 26.7084C22.4581 26.8291 22.6534 26.9266 22.8394 27.0195C23.0068 27.1031 23.1649 27.182 23.2998 27.2656C23.3184 27.2749 23.337 27.2888 23.3556 27.2981C23.5137 27.377 23.6625 27.4142 23.8159 27.4142C24.2019 27.4142 24.4437 27.1727 24.5227 27.0938L26.113 25.5058C26.2711 25.3479 26.5222 25.1575 26.8152 25.1575C27.1035 25.1575 27.3406 25.3386 27.4848 25.4965C27.4894 25.5011 27.4894 25.5011 27.4941 25.5058L30.0562 28.0642C30.5352 28.5378 30.5352 29.0254 30.0609 29.5176Z" fill="black"/>
<path d="M22.8907 16.2332C24.109 16.4375 25.2157 17.0133 26.0992 17.8955C26.9827 18.7777 27.5547 19.8828 27.7639 21.0994C27.8151 21.4058 28.0801 21.6194 28.3824 21.6194C28.4196 21.6194 28.4521 21.6148 28.4893 21.6101C28.8334 21.5544 29.0613 21.2294 29.0055 20.8858C28.7544 19.4139 28.0569 18.072 26.992 17.0087C25.9272 15.9454 24.5833 15.2489 23.1093 14.9981C22.7652 14.9424 22.4443 15.1699 22.3839 15.5089C22.3234 15.8479 22.5466 16.1775 22.8907 16.2332Z" fill="black"/>
<path d="M32.9904 20.7047C32.5765 18.2809 31.4326 16.0753 29.6749 14.3202C27.9172 12.565 25.7085 11.4228 23.2812 11.0096C22.9417 10.9492 22.6209 11.1814 22.5604 11.5203C22.5046 11.8639 22.7325 12.1843 23.0766 12.2447C25.2435 12.6115 27.2197 13.6376 28.7914 15.2024C30.3631 16.7718 31.3861 18.7452 31.7535 20.909C31.8046 21.2154 32.0697 21.429 32.3719 21.429C32.4091 21.429 32.4417 21.4244 32.4789 21.4197C32.8183 21.3687 33.0508 21.0436 32.9904 20.7047Z" fill="black"/>
</svg>
